<svg xmlns="http://www.w3.org/2000/svg" width="125.4" height="247.8" viewBox="0 0 125.4 247.8"><title>Asset 1</title><g id="Layer_2" data-name="Layer 2"><g id="Layer_1-2" data-name="Layer 1"><path d="M114.3,183.5,96,153.4c3.4-11.7,6.1-24.7,6.1-37.5,0-1.7-.1-3.4-.2-5C100.1,77.2,87,65.1,77.3,55.4c-4.6-4.6-8.1-8.6-10.6-14.2a.3.3,0,0,1-.1-.2,11,11,0,0,0,4.1-1.4,5.7,5.7,0,0,0,2.7-5.1l-.5-1.2q-1.2-1.2-6.9-1.5a20.4,20.4,0,0,1,.1-6.5c.1-1.1.1-1.1,1.8-1.3h.3a2.3,2.3,0,0,0,2-1.2c.6-1.3-.2-2.8-.7-3.7l-.2-.3-.2-.6c-2.6-6.4-4-11-4-13.5S64.3.6,63.8.2a1.7,1.7,0,0,0-1.7,0c-.3.2-1.4.8-1.4,4.4,0,1.7-.7,5.4-4,13.6v.5l-.2.3a5.1,5.1,0,0,0-1,2.6,2.3,2.3,0,0,0,.3,1.1,2.2,2.2,0,0,0,2,1.2H58c1.6.2,1.6.2,1.8,1.3a30.2,30.2,0,0,1,.3,4,19.5,19.5,0,0,1-.2,2.5q-5.7.3-6.9,1.5l-.6,1.2a5.7,5.7,0,0,0,2.8,5.1A10.4,10.4,0,0,0,59.3,41l-.2.3C56.7,46.9,52.7,51,48,55.6c-9.7,9.7-22.7,21.8-24.5,55.3-.1,1.6-.2,3.3-.2,5,0,12.8,2.7,25.8,6.1,37.5L11.1,183.5,0,247.8H12.5L24.2,207l19.6-16.5h0l.7.2,2.2.7c.3,2.1.7,4.2,1,5.5s.6,3.5,9.8,4.2v46.6H67.8V201.2c9.7-.6,10.2-3.1,10.4-4.1s.6-3.5.9-5.6l2.2-.7h.4L101.2,207l11.7,40.8h12.5Z" fill="#b4fff4"/></g></g></svg>